<svg width="166" height="166" xmlns="http://www.w3.org/2000/svg" xmlns:xlink="http://www.w3.org/1999/xlink" overflow="hidden"><defs><clipPath id="clip0"><rect x="192" y="63" width="166" height="166"/></clipPath><clipPath id="clip1"><rect x="212" y="79" width="125" height="124"/></clipPath><clipPath id="clip2"><rect x="212" y="79" width="125" height="124"/></clipPath><clipPath id="clip3"><rect x="212" y="79" width="125" height="124"/></clipPath></defs><g clip-path="url(#clip0)" transform="translate(-192 -63)"><g clip-path="url(#clip1)"><g clip-path="url(#clip2)"><g clip-path="url(#clip3)"><path d="M56.7989 91.3352C56.7989 96.8392 52.337 101.301 46.833 101.301 41.3289 101.301 36.867 96.8392 36.867 91.3352 36.867 85.8312 41.3289 81.3693 46.833 81.3693 52.337 81.3693 56.7989 85.8312 56.7989 91.3352Z" fill="#093371" transform="matrix(1.00806 0 0 1 212 79)"/><path d="M23.8011 99.7626 9.89704 99.7626C9.08185 99.7626 8.41593 99.0967 8.41593 98.2815L8.41593 84.3774C8.41593 83.5622 9.08185 82.8963 9.89704 82.8963L23.8011 82.8963C24.6163 82.8963 25.2822 83.5622 25.2822 84.3774L25.2822 98.2815C25.2822 99.0967 24.6163 99.7626 23.8011 99.7626Z" fill="#FF8F02" transform="matrix(1.00806 0 0 1 212 79)"/><path d="M69.2104 100.406 86.2259 100.406C87.1444 100.406 87.7415 99.4182 87.2937 98.603L78.7859 82.8848C78.3267 82.0352 77.0982 82.0352 76.6389 82.8848L68.1311 98.603C67.7063 99.4182 68.2919 100.406 69.2104 100.406Z" fill="#2196F3" transform="matrix(1.00806 0 0 1 212 79)"/><path d="M23.7093 74.6296 9.89704 74.6296C9.04741 74.6296 8.35852 73.9407 8.35852 73.0911L8.35852 48.383C8.35852 47.5333 9.04741 46.8444 9.89704 46.8444L23.7093 46.8444C24.5589 46.8444 25.2478 47.5333 25.2478 48.383L25.2478 73.1026C25.2363 73.9407 24.5474 74.6296 23.7093 74.6296Z" fill="#093371" transform="matrix(1.00806 0 0 1 212 79)"/><path d="M23.7093 74.6296 9.89704 74.6296C9.04741 74.6296 8.35852 73.9407 8.35852 73.0911L8.35852 68.8085C8.35852 67.9589 9.04741 67.27 9.89704 67.27L23.7093 67.27C24.5589 67.27 25.2478 67.9589 25.2478 68.8085L25.2478 73.0911C25.2363 73.9407 24.5474 74.6296 23.7093 74.6296Z" fill="#2196F3" transform="matrix(1.00806 0 0 1 212 79)"/><path d="M114.16 99.7626 100.256 99.7626C99.4411 99.7626 98.7752 99.0967 98.7752 98.2815L98.7752 84.3774C98.7752 83.5622 99.4411 82.8963 100.256 82.8963L114.16 82.8963C114.976 82.8963 115.641 83.5622 115.641 84.3774L115.641 98.2815C115.641 99.0967 114.976 99.7626 114.16 99.7626Z" fill="#FF8F02" transform="matrix(1.00806 0 0 1 212 79)"/><path d="M114.069 74.6296 100.256 74.6296C99.4067 74.6296 98.7178 73.9407 98.7178 73.0911L98.7178 24.157C98.7178 23.3074 99.4067 22.6185 100.256 22.6185L114.069 22.6185C114.918 22.6185 115.607 23.3074 115.607 24.157L115.607 73.1026C115.596 73.9407 114.907 74.6296 114.069 74.6296Z" fill="#093371" transform="matrix(1.00806 0 0 1 212 79)"/><path d="M54.3648 74.6296 40.5526 74.6296C39.703 74.6296 39.0141 73.9407 39.0141 73.0911L39.0141 56.3052C39.0141 55.4556 39.703 54.7667 40.5526 54.7667L54.3648 54.7667C55.2144 54.7667 55.9033 55.4556 55.9033 56.3052L55.9033 73.1026C55.8919 73.9407 55.203 74.6296 54.3648 74.6296Z" fill="#093371" transform="matrix(1.00806 0 0 1 212 79)"/><path d="M54.3648 74.6296 40.5526 74.6296C39.703 74.6296 39.0141 73.9407 39.0141 73.0911L39.0141 61.4719C39.0141 60.6222 39.703 59.9333 40.5526 59.9333L54.3648 59.9333C55.2144 59.9333 55.9033 60.6222 55.9033 61.4719L55.9033 73.1026C55.8919 73.9407 55.203 74.6296 54.3648 74.6296Z" fill="#2196F3" transform="matrix(1.00806 0 0 1 212 79)"/><path d="M84.2167 74.6296 70.4044 74.6296C69.5548 74.6296 68.8659 73.9407 68.8659 73.0911L68.8659 37.0163C68.8659 36.1667 69.5548 35.4778 70.4044 35.4778L84.2167 35.4778C85.0663 35.4778 85.7552 36.1667 85.7552 37.0163L85.7552 73.1026C85.7437 73.9407 85.0548 74.6296 84.2167 74.6296Z" fill="#093371" transform="matrix(1.00806 0 0 1 212 79)"/><path d="M84.2167 74.6296 70.4044 74.6296C69.5548 74.6296 68.8659 73.9407 68.8659 73.0911L68.8659 47.8089C68.8659 46.9593 69.5548 46.2704 70.4044 46.2704L84.2167 46.2704C85.0663 46.2704 85.7552 46.9593 85.7552 47.8089L85.7552 73.1026C85.7437 73.9407 85.0548 74.6296 84.2167 74.6296Z" fill="#2196F3" transform="matrix(1.00806 0 0 1 212 79)"/><path d="M114.069 74.6296 100.256 74.6296C99.4067 74.6296 98.7178 73.9407 98.7178 73.0911L98.7178 32.0793C98.7178 31.2296 99.4067 30.5407 100.256 30.5407L114.069 30.5407C114.918 30.5407 115.607 31.2296 115.607 32.0793L115.607 73.1026C115.596 73.9407 114.907 74.6296 114.069 74.6296Z" fill="#2196F3" transform="matrix(1.00806 0 0 1 212 79)"/></g></g></g><text fill="#393D4D" font-family="Rubik,Rubik_MSFontService,sans-serif" font-weight="500" font-size="19" transform="translate(244.683 204)">Charts</text><rect x="193.5" y="64.5001" width="163" height="164" stroke="#FFFFFF" stroke-width="1.13333" stroke-linejoin="round" stroke-miterlimit="10" fill="none"/></g></svg>