<?xml version="1.0" encoding="utf-8"?>
<!-- Generator: Adobe Illustrator 25.0.1, SVG Export Plug-In . SVG Version: 6.00 Build 0)  -->
<svg version="1.1" id="Layer_1" xmlns="http://www.w3.org/2000/svg" xmlns:xlink="http://www.w3.org/1999/xlink" x="0px" y="0px"
	 viewBox="0 0 1080 1080" style="enable-background:new 0 0 1080 1080;" xml:space="preserve">
<style type="text/css">
	.st0{fill:#093371;}
	.st1{fill:#FF8F02;}
	.st2{fill:#2196F3;}
</style>
<g>
	<circle class="st0" cx="407.9" cy="795.5" r="86.8"/>
	<path class="st1" d="M207.3,868.9H86.2c-7.1,0-12.9-5.8-12.9-12.9V734.9c0-7.1,5.8-12.9,12.9-12.9h121.1c7.1,0,12.9,5.8,12.9,12.9
		V856C220.2,863.1,214.4,868.9,207.3,868.9z"/>
	<path class="st2" d="M602.8,874.5h148.2c8,0,13.2-8.6,9.3-15.7l-74.1-136.9c-4-7.4-14.7-7.4-18.7,0l-74.1,136.9
		C589.7,865.9,594.8,874.5,602.8,874.5z"/>
	<path class="st0" d="M206.5,650H86.2c-7.4,0-13.4-6-13.4-13.4V421.4c0-7.4,6-13.4,13.4-13.4h120.3c7.4,0,13.4,6,13.4,13.4v215.3
		C219.8,644,213.8,650,206.5,650z"/>
	<path class="st2" d="M206.5,650H86.2c-7.4,0-13.4-6-13.4-13.4v-37.3c0-7.4,6-13.4,13.4-13.4h120.3c7.4,0,13.4,6,13.4,13.4v37.3
		C219.8,644,213.8,650,206.5,650z"/>
	<path class="st1" d="M994.3,868.9H873.2c-7.1,0-12.9-5.8-12.9-12.9V734.9c0-7.1,5.8-12.9,12.9-12.9h121.1c7.1,0,12.9,5.8,12.9,12.9
		V856C1007.2,863.1,1001.4,868.9,994.3,868.9z"/>
	<path class="st0" d="M993.5,650H873.2c-7.4,0-13.4-6-13.4-13.4V210.4c0-7.4,6-13.4,13.4-13.4h120.3c7.4,0,13.4,6,13.4,13.4v426.3
		C1006.8,644,1000.8,650,993.5,650z"/>
	<path class="st0" d="M473.5,650H353.2c-7.4,0-13.4-6-13.4-13.4V490.4c0-7.4,6-13.4,13.4-13.4h120.3c7.4,0,13.4,6,13.4,13.4v146.3
		C486.8,644,480.8,650,473.5,650z"/>
	<path class="st2" d="M473.5,650H353.2c-7.4,0-13.4-6-13.4-13.4V535.4c0-7.4,6-13.4,13.4-13.4h120.3c7.4,0,13.4,6,13.4,13.4v101.3
		C486.8,644,480.8,650,473.5,650z"/>
	<path class="st0" d="M733.5,650H613.2c-7.4,0-13.4-6-13.4-13.4V322.4c0-7.4,6-13.4,13.4-13.4h120.3c7.4,0,13.4,6,13.4,13.4v314.3
		C746.8,644,740.8,650,733.5,650z"/>
	<path class="st2" d="M733.5,650H613.2c-7.4,0-13.4-6-13.4-13.4V416.4c0-7.4,6-13.4,13.4-13.4h120.3c7.4,0,13.4,6,13.4,13.4v220.3
		C746.8,644,740.8,650,733.5,650z"/>
	<path class="st2" d="M993.5,650H873.2c-7.4,0-13.4-6-13.4-13.4V279.4c0-7.4,6-13.4,13.4-13.4h120.3c7.4,0,13.4,6,13.4,13.4v357.3
		C1006.8,644,1000.8,650,993.5,650z"/>
</g>
</svg>
