<svg width="181" height="182" xmlns="http://www.w3.org/2000/svg" xmlns:xlink="http://www.w3.org/1999/xlink" overflow="hidden"><defs><clipPath id="clip0"><rect x="438" y="46" width="181" height="182"/></clipPath><clipPath id="clip1"><rect x="454" y="58" width="148" height="148"/></clipPath><clipPath id="clip2"><rect x="454" y="58" width="148" height="148"/></clipPath><clipPath id="clip3"><rect x="454" y="58" width="148" height="148"/></clipPath></defs><g clip-path="url(#clip0)" transform="translate(-438 -46)"><rect x="446.5" y="56.5001" width="163" height="163" stroke="#FFFFFF" stroke-width="1.13333" stroke-linejoin="round" stroke-miterlimit="10" fill="none"/><g clip-path="url(#clip1)"><g clip-path="url(#clip2)"><g clip-path="url(#clip3)"><path d="M518.723 154.652C518.723 156.214 519.956 157.475 521.477 157.475L534.509 157.475C536.03 157.475 537.264 156.214 537.264 154.652L537.264 154.652 537.264 141.291C537.264 139.729 536.03 138.468 534.509 138.468L521.477 138.468C519.956 138.468 518.723 139.729 518.723 141.291L518.723 154.652ZM523.327 143.169 532.687 143.169 532.687 152.761 523.327 152.761 523.327 143.169Z" fill="#FFFFFF"/><path d="M496.947 131 509.98 131C511.501 131 512.734 129.739 512.734 128.177L512.734 128.177 512.734 114.816C512.734 113.253 511.501 111.993 509.98 111.993L496.947 111.993C495.426 111.993 494.193 113.253 494.193 114.816L494.193 128.177C494.193 129.739 495.426 131 496.947 131ZM498.797 116.693 508.157 116.693 508.157 126.286 498.797 126.286 498.797 116.693Z" fill="#FFFFFF"/><path d="M559.053 111.979 546.02 111.979C544.499 111.979 543.266 113.24 543.266 114.802L543.266 128.163C543.266 129.725 544.499 130.986 546.02 130.986L559.053 130.986C560.574 130.986 561.807 129.725 561.807 128.163 561.807 128.163 561.807 114.802 561.807 114.802 561.807 113.253 560.574 111.979 559.053 111.979ZM557.216 126.286 547.857 126.286 547.857 116.693 557.216 116.693 557.216 126.286Z" fill="#FFFFFF"/><path d="M494.193 154.652C494.193 156.214 495.426 157.475 496.947 157.475L509.98 157.475C511.501 157.475 512.734 156.214 512.734 154.652L512.734 154.652 512.734 141.291C512.734 139.729 511.501 138.468 509.98 138.468L496.947 138.468C495.426 138.468 494.193 139.729 494.193 141.291L494.193 154.652ZM498.797 143.169 508.157 143.169 508.157 152.761 498.797 152.761 498.797 143.169Z" fill="#FFFFFF"/><path d="M521.491 131 534.523 131C536.044 131 537.277 129.739 537.277 128.177L537.277 128.177 537.277 114.816C537.277 113.253 536.044 111.993 534.523 111.993L521.491 111.993C519.97 111.993 518.736 113.253 518.736 114.816L518.736 128.177C518.723 129.739 519.97 131 521.491 131ZM523.327 116.693 532.687 116.693 532.687 126.286 523.327 126.286 523.327 116.693Z" fill="#FFFFFF"/><path d="M559.053 138.454 546.02 138.454C544.499 138.454 543.266 139.715 543.266 141.277L543.266 154.639C543.266 156.201 544.499 157.461 546.02 157.461L559.053 157.461C560.574 157.461 561.807 156.201 561.807 154.639 561.807 154.639 561.807 141.277 561.807 141.277 561.807 139.729 560.574 138.454 559.053 138.454ZM557.216 152.761 547.857 152.761 547.857 143.169 557.216 143.169 557.216 152.761Z" fill="#FFFFFF"/><path d="M523.327 116.693 532.687 116.693 532.687 126.286 523.327 126.286Z" fill="#FF8F02"/><path d="M547.857 143.169 557.216 143.169 557.216 152.761 547.857 152.761Z" fill="#FF8F02"/><path d="M498.797 143.169 508.157 143.169 508.157 152.761 498.797 152.761Z" fill="#FF8F02"/><path d="M498.797 116.693 508.157 116.693 508.157 126.286 498.797 126.286Z" fill="#093371"/><path d="M523.327 143.169 532.687 143.169 532.687 152.761 523.327 152.761Z" fill="#093371"/><path d="M571.208 98.3574 484.792 98.3574C483.271 98.3574 482.038 99.6181 482.038 101.18L482.038 168.918C482.038 170.48 483.271 171.741 484.792 171.741L562.506 171.741C568.823 171.741 573.962 166.479 573.962 159.997L573.962 101.18C573.962 99.6181 572.729 98.3574 571.208 98.3574ZM561.807 128.177C561.807 129.739 560.574 131 559.053 131L546.02 131C544.499 131 543.266 129.739 543.266 128.177L543.266 114.816C543.266 113.253 544.499 111.993 546.02 111.993L559.053 111.993C560.574 111.993 561.807 113.253 561.807 114.816 561.807 114.816 561.807 128.177 561.807 128.177ZM496.947 138.454 509.98 138.454C511.501 138.454 512.734 139.715 512.734 141.277L512.734 154.639 512.734 154.639C512.734 156.201 511.501 157.461 509.98 157.461L496.947 157.461C495.426 157.461 494.193 156.201 494.193 154.639L494.193 141.277C494.193 139.729 495.426 138.454 496.947 138.454ZM494.193 128.177 494.193 114.816C494.193 113.253 495.426 111.993 496.947 111.993L509.98 111.993C511.501 111.993 512.734 113.253 512.734 114.816L512.734 128.177 512.734 128.177C512.734 129.739 511.501 131 509.98 131L496.947 131C495.426 131 494.193 129.739 494.193 128.177ZM521.491 138.454 534.523 138.454C536.044 138.454 537.277 139.715 537.277 141.277L537.277 154.639 537.277 154.639C537.277 156.201 536.044 157.461 534.523 157.461L521.491 157.461C519.97 157.461 518.736 156.201 518.736 154.639L518.736 141.277C518.723 139.729 519.97 138.454 521.491 138.454ZM518.723 128.177 518.723 114.816C518.723 113.253 519.956 111.993 521.477 111.993L534.509 111.993C536.03 111.993 537.264 113.253 537.264 114.816L537.264 128.177 537.264 128.177C537.264 129.739 536.03 131 534.509 131L521.477 131C519.97 131 518.723 129.739 518.723 128.177ZM561.807 154.652C561.807 156.214 560.574 157.475 559.053 157.475L546.02 157.475C544.499 157.475 543.266 156.214 543.266 154.652L543.266 141.291C543.266 139.729 544.499 138.468 546.02 138.468L559.053 138.468C560.574 138.468 561.807 139.729 561.807 141.291 561.807 141.291 561.807 154.652 561.807 154.652Z" fill="#093371"/><path d="M547.857 116.693 557.216 116.693 557.216 126.286 547.857 126.286Z" fill="#2196F3"/><path d="M503.47 104.36C502.895 104.36 502.443 103.894 502.443 103.332L502.443 93.3007C502.443 92.7252 502.909 92.273 503.47 92.273 504.032 92.273 504.498 92.7389 504.498 93.3007L504.498 103.332C504.498 103.894 504.032 104.36 503.47 104.36Z" fill="#2196F3"/><path d="M527.986 104.36C527.411 104.36 526.958 103.894 526.958 103.332L526.958 93.3007C526.958 92.7252 527.424 92.273 527.986 92.273 528.562 92.273 529.014 92.7389 529.014 93.3007L529.014 103.332C529.014 103.894 528.562 104.36 527.986 104.36Z" fill="#2196F3"/><path d="M552.516 104.36C551.94 104.36 551.488 103.894 551.488 103.332L551.488 93.3007C551.488 92.7252 551.954 92.273 552.516 92.273 553.078 92.273 553.544 92.7389 553.544 93.3007L553.544 103.332C553.544 103.894 553.078 104.36 552.516 104.36Z" fill="#2196F3"/></g></g></g><text fill="#393D4D" font-family="Rubik,Rubik_MSFontService,sans-serif" font-weight="500" font-size="19" transform="translate(501.959 193)">Period</text></g></svg>