<svg width="165" height="168" xmlns="http://www.w3.org/2000/svg" xmlns:xlink="http://www.w3.org/1999/xlink" overflow="hidden"><defs><clipPath id="clip0"><rect x="34" y="61" width="165" height="168"/></clipPath><clipPath id="clip1"><rect x="40" y="62" width="156" height="156"/></clipPath><clipPath id="clip2"><rect x="40" y="62" width="156" height="156"/></clipPath><clipPath id="clip3"><rect x="40" y="62" width="156" height="156"/></clipPath></defs><g clip-path="url(#clip0)" transform="translate(-34 -61)"><g clip-path="url(#clip1)"><g clip-path="url(#clip2)"><g clip-path="url(#clip3)"><path d="M168.888 180.733 67.1122 180.733C66.1156 180.733 65.3067 179.924 65.3067 178.928L65.3067 101.072C65.3067 100.076 66.1156 99.2667 67.1122 99.2667L168.888 99.2667C169.884 99.2667 170.693 100.076 170.693 101.072L170.693 178.928C170.693 179.924 169.884 180.733 168.888 180.733Z" fill="#093371"/><path d="M99.4822 112.801 85.2544 112.801C84.6044 112.801 84.0844 112.281 84.0844 111.631L84.0844 105.059C84.0844 104.409 84.6044 103.889 85.2544 103.889L99.4822 103.889C100.132 103.889 100.652 104.409 100.652 105.059L100.652 111.631C100.652 112.281 100.118 112.801 99.4822 112.801Z" fill="#2196F3"/><path d="M121.25 112.801 107.022 112.801C106.372 112.801 105.852 112.281 105.852 111.631L105.852 105.059C105.852 104.409 106.372 103.889 107.022 103.889L121.25 103.889C121.9 103.889 122.42 104.409 122.42 105.059L122.42 111.631C122.42 112.281 121.886 112.801 121.25 112.801Z" fill="#2196F3"/><path d="M143.133 112.801 128.906 112.801C128.256 112.801 127.736 112.281 127.736 111.631L127.736 105.059C127.736 104.409 128.256 103.889 128.906 103.889L143.133 103.889C143.783 103.889 144.303 104.409 144.303 105.059L144.303 111.631C144.303 112.281 143.769 112.801 143.133 112.801Z" fill="#2196F3"/><path d="M99.4244 133.876 85.1967 133.876C84.5467 133.876 84.0267 133.356 84.0267 132.706L84.0267 118.478C84.0267 117.828 84.5467 117.308 85.1967 117.308L99.4244 117.308C100.074 117.308 100.594 117.828 100.594 118.478L100.594 132.706C100.594 133.356 100.06 133.876 99.4244 133.876Z" fill="#FFFFFF"/><path d="M77.83 133.876 71.2578 133.876C70.6078 133.876 70.0878 133.356 70.0878 132.706L70.0878 118.478C70.0878 117.828 70.6078 117.308 71.2578 117.308L77.83 117.308C78.48 117.308 79 117.828 79 118.478L79 132.706C79 133.356 78.4656 133.876 77.83 133.876Z" fill="#FF8F02"/><path d="M121.25 133.876 107.022 133.876C106.372 133.876 105.852 133.356 105.852 132.706L105.852 118.478C105.852 117.828 106.372 117.308 107.022 117.308L121.25 117.308C121.9 117.308 122.42 117.828 122.42 118.478L122.42 132.706C122.42 133.356 121.886 133.876 121.25 133.876Z" fill="#FFFFFF"/><path d="M143.133 133.876 128.906 133.876C128.256 133.876 127.736 133.356 127.736 132.706L127.736 118.478C127.736 117.828 128.256 117.308 128.906 117.308L143.133 117.308C143.783 117.308 144.303 117.828 144.303 118.478L144.303 132.706C144.303 133.356 143.769 133.876 143.133 133.876Z" fill="#FFFFFF"/><path d="M77.83 154.95 71.2578 154.95C70.6078 154.95 70.0878 154.43 70.0878 153.78L70.0878 139.567C70.0878 138.917 70.6078 138.397 71.2578 138.397L77.83 138.397C78.48 138.397 79 138.917 79 139.567L79 153.794C79 154.43 78.4656 154.95 77.83 154.95Z" fill="#FF8F02"/><path d="M121.25 154.95 107.022 154.95C106.372 154.95 105.852 154.43 105.852 153.78L105.852 139.567C105.852 138.917 106.372 138.397 107.022 138.397L121.25 138.397C121.9 138.397 122.42 138.917 122.42 139.567L122.42 153.794C122.42 154.43 121.886 154.95 121.25 154.95Z" fill="#FFFFFF"/><path d="M143.133 154.95 128.906 154.95C128.256 154.95 127.736 154.43 127.736 153.78L127.736 139.567C127.736 138.917 128.256 138.397 128.906 138.397L143.133 138.397C143.783 138.397 144.303 138.917 144.303 139.567L144.303 153.794C144.303 154.43 143.769 154.95 143.133 154.95Z" fill="#FFFFFF"/><path d="M99.4244 154.95 85.1967 154.95C84.5467 154.95 84.0267 154.43 84.0267 153.78L84.0267 139.567C84.0267 138.917 84.5467 138.397 85.1967 138.397L99.4244 138.397C100.074 138.397 100.594 138.917 100.594 139.567L100.594 153.794C100.594 154.43 100.06 154.95 99.4244 154.95Z" fill="#FFFFFF"/><path d="M77.83 176.024 71.2578 176.024C70.6078 176.024 70.0878 175.504 70.0878 174.854L70.0878 160.627C70.0878 159.977 70.6078 159.457 71.2578 159.457L77.83 159.457C78.48 159.457 79 159.977 79 160.627L79 174.854C79 175.504 78.4656 176.024 77.83 176.024Z" fill="#FF8F02"/><path d="M121.25 176.024 107.022 176.024C106.372 176.024 105.852 175.504 105.852 174.854L105.852 160.627C105.852 159.977 106.372 159.457 107.022 159.457L121.25 159.457C121.9 159.457 122.42 159.977 122.42 160.627L122.42 174.854C122.42 175.504 121.886 176.024 121.25 176.024Z" fill="#FFFFFF"/><path d="M143.133 176.024 128.906 176.024C128.256 176.024 127.736 175.504 127.736 174.854L127.736 160.627C127.736 159.977 128.256 159.457 128.906 159.457L143.133 159.457C143.783 159.457 144.303 159.977 144.303 160.627L144.303 174.854C144.303 175.504 143.769 176.024 143.133 176.024Z" fill="#FFFFFF"/><path d="M165.017 112.801 150.789 112.801C150.139 112.801 149.619 112.281 149.619 111.631L149.619 105.059C149.619 104.409 150.139 103.889 150.789 103.889L165.017 103.889C165.667 103.889 166.187 104.409 166.187 105.059L166.187 111.631C166.187 112.281 165.667 112.801 165.017 112.801Z" fill="#2196F3"/><path d="M165.017 133.876 150.789 133.876C150.139 133.876 149.619 133.356 149.619 132.706L149.619 118.478C149.619 117.828 150.139 117.308 150.789 117.308L165.017 117.308C165.667 117.308 166.187 117.828 166.187 118.478L166.187 132.706C166.187 133.356 165.667 133.876 165.017 133.876Z" fill="#FFFFFF"/><path d="M165.017 154.95 150.789 154.95C150.139 154.95 149.619 154.43 149.619 153.78L149.619 139.567C149.619 138.917 150.139 138.397 150.789 138.397L165.017 138.397C165.667 138.397 166.187 138.917 166.187 139.567L166.187 153.794C166.187 154.43 165.667 154.95 165.017 154.95Z" fill="#FFFFFF"/><path d="M165.017 176.024 150.789 176.024C150.139 176.024 149.619 175.504 149.619 174.854L149.619 160.627C149.619 159.977 150.139 159.457 150.789 159.457L165.017 159.457C165.667 159.457 166.187 159.977 166.187 160.627L166.187 174.854C166.187 175.504 165.667 176.024 165.017 176.024Z" fill="#FFFFFF"/><path d="M99.4244 176.024 85.1967 176.024C84.5467 176.024 84.0267 175.504 84.0267 174.854L84.0267 160.627C84.0267 159.977 84.5467 159.457 85.1967 159.457L99.4244 159.457C100.074 159.457 100.594 159.977 100.594 160.627L100.594 174.854C100.594 175.504 100.06 176.024 99.4244 176.024Z" fill="#FFFFFF"/></g></g></g><text fill="#393D4D" font-family="Rubik,Rubik_MSFontService,sans-serif" font-weight="500" font-size="19" transform="translate(64.4424 203)">Pivot tables</text><rect x="35.5001" y="64.5001" width="163" height="163" stroke="#FFFFFF" stroke-width="1.13333" stroke-linejoin="round" stroke-miterlimit="10" fill="none"/></g></svg>