<svg width="182" height="182" xmlns="http://www.w3.org/2000/svg" xmlns:xlink="http://www.w3.org/1999/xlink" overflow="hidden"><defs><clipPath id="clip0"><rect x="234" y="45" width="182" height="182"/></clipPath><clipPath id="clip1"><rect x="258" y="66" width="130" height="130"/></clipPath><clipPath id="clip2"><rect x="258" y="66" width="130" height="130"/></clipPath><clipPath id="clip3"><rect x="258" y="66" width="130" height="130"/></clipPath></defs><g clip-path="url(#clip0)" transform="translate(-234 -45)"><g clip-path="url(#clip1)"><g clip-path="url(#clip2)"><g clip-path="url(#clip3)"><path d="M319.943 151.006C309.085 150.921 300.226 142.062 300.142 131.205 300.057 120.131 309.037 111.091 320.099 111.091L320.099 117.422C312.407 117.422 306.184 123.826 306.485 131.59 306.762 138.656 312.492 144.397 319.557 144.662 327.309 144.963 333.725 138.74 333.725 131.048 333.725 127.63 332.473 124.404 330.198 121.9 329.945 121.623 329.957 121.202 330.21 120.937L333.713 117.434C333.99 117.157 334.435 117.169 334.7 117.446 338.155 121.154 340.056 125.956 340.056 131.048 340.056 142.11 331.017 151.09 319.943 151.006Z" fill="#093371"/><path d="M320.099 161.743C311.902 161.743 304.186 158.553 298.396 152.751 292.631 146.985 289.405 139.197 289.405 131.048 289.405 122.851 292.594 115.135 298.396 109.345 304.198 103.544 311.902 100.354 320.099 100.354L320.099 106.757C306.678 106.757 295.772 117.687 295.796 131.12 295.832 144.445 306.714 155.327 320.039 155.363 333.46 155.399 344.402 144.481 344.402 131.06 344.402 124.789 342.043 118.891 337.757 114.365 337.505 114.088 337.505 113.667 337.769 113.402L341.32 109.851C341.597 109.574 342.043 109.586 342.307 109.863 347.796 115.605 350.806 123.104 350.806 131.06 350.806 139.209 347.58 147.009 341.814 152.763 336.012 158.553 328.296 161.743 320.099 161.743Z" fill="#2196F3"/><path d="M358.401 114.81C356.379 110.056 353.538 105.77 349.927 102.063 349.662 101.786 349.217 101.786 348.94 102.051L345.449 105.566C345.184 105.831 345.184 106.264 345.437 106.529 351.841 113.137 355.356 121.816 355.356 131.048 355.356 140.461 351.684 149.32 345.028 155.977 338.371 162.633 329.512 166.305 320.099 166.305 310.843 166.305 301.983 162.681 295.387 156.194 288.586 149.513 284.843 140.569 284.843 131.048 284.843 121.671 288.791 112.848 295.965 106.192 301.526 101.04 308.495 97.6574 316.091 96.3694 316.428 96.3093 316.741 96.5741 316.741 96.9231L316.741 123.453C313.515 124.705 311.228 127.822 311.228 131.494 311.228 136.248 315.092 140.112 319.846 140.112 324.601 140.112 328.465 136.248 328.465 131.494 328.465 127.882 326.238 124.789 323.084 123.501L323.12 90.0139C323.12 89.7009 322.868 89.4482 322.555 89.4602 310.891 89.5926 299.937 93.8778 291.656 101.557 287.539 105.373 284.313 109.827 282.05 114.786 279.703 119.938 278.511 125.415 278.511 131.06 278.511 136.669 279.606 142.122 281.785 147.25 283.88 152.209 286.877 156.651 290.693 160.467 294.508 164.282 298.962 167.28 303.909 169.374 309.037 171.541 314.49 172.648 320.099 172.648 325.708 172.648 331.161 171.553 336.289 169.374 341.248 167.28 345.69 164.282 349.506 160.467 353.321 156.651 356.319 152.197 358.413 147.25 360.58 142.122 361.687 136.669 361.687 131.06 361.699 125.415 360.592 119.95 358.401 114.81Z" fill="#093371"/><path d="M322.278 131.457C322.278 132.78 321.205 133.853 319.882 133.853 318.559 133.853 317.487 132.78 317.487 131.457 317.487 130.134 318.559 129.062 319.882 129.062 321.205 129.062 322.278 130.134 322.278 131.457Z" fill="#FF8F02"/></g></g></g><text fill="#393D4D" font-family="Rubik,Rubik_MSFontService,sans-serif" font-weight="500" font-size="19" transform="translate(286.377 192)">Capture</text></g></svg>