<?xml version="1.0" encoding="utf-8"?>
<!-- Generator: Adobe Illustrator 25.0.1, SVG Export Plug-In . SVG Version: 6.00 Build 0)  -->
<svg version="1.1" id="Layer_1" xmlns="http://www.w3.org/2000/svg" xmlns:xlink="http://www.w3.org/1999/xlink" x="0px" y="0px"
	 viewBox="0 0 1080 1080" style="enable-background:new 0 0 1080 1080;" xml:space="preserve">
<style type="text/css">
	.st0{fill:#093371;}
	.st1{fill:#2196F3;}
</style>
<g>
	<path class="st0" d="M490.6,653.3H210.7c-6.3,0-11.5,5.1-11.5,11.5V869c0,6.3,5.1,11.5,11.5,11.5h279.9c6.3,0,11.5-5.1,11.5-11.5
		V664.8C502.1,658.5,497,653.3,490.6,653.3z"/>
	<path class="st0" d="M869.2,199H589.3c-6.3,0-11.5,5.1-11.5,11.5v204.2c0,6.3,5.1,11.5,11.5,11.5h279.9c6.3,0,11.5-5.1,11.5-11.5
		V210.5C880.7,204.1,875.6,199,869.2,199z"/>
	<path class="st1" d="M490.7,199.5H210.8c-6.3,0-11.5,5.1-11.5,11.5v355.6c0,6.3,5.1,11.5,11.5,11.5h279.9c6.3,0,11.5-5.1,11.5-11.5
		V211C502.2,204.7,497.1,199.5,490.7,199.5z"/>
	<path class="st1" d="M869.3,502.4H589.4c-6.3,0-11.5,5.1-11.5,11.5v355.6c0,6.3,5.1,11.5,11.5,11.5h279.9c6.3,0,11.5-5.1,11.5-11.5
		V513.9C880.8,507.5,875.6,502.4,869.3,502.4z"/>
</g>
</svg>
