<svg width="181" height="181" xmlns="http://www.w3.org/2000/svg" xmlns:xlink="http://www.w3.org/1999/xlink" overflow="hidden"><defs><clipPath id="clip0"><rect x="25" y="49" width="181" height="181"/></clipPath><clipPath id="clip1"><rect x="43" y="101" width="125" height="66"/></clipPath><clipPath id="clip2"><rect x="43" y="101" width="125" height="66"/></clipPath></defs><g clip-path="url(#clip0)" transform="translate(-25 -49)"><g clip-path="url(#clip1)"><g clip-path="url(#clip2)"><path d="M88.2364 25.6877C84.4226 29.5014 84.4226 35.6948 88.2364 39.5086 92.0501 43.3223 98.2436 43.3223 102.057 39.5086 105.871 35.6948 105.871 29.5014 102.057 25.6877 98.2278 21.8739 92.0501 21.8739 88.2364 25.6877ZM92.1132 35.5845C90.4585 33.9298 90.4585 31.2665 92.1132 29.6117 93.7679 27.957 96.4312 27.957 98.086 29.6117 99.7407 31.2665 99.7407 33.9298 98.086 35.5845 96.4312 37.2393 93.7679 37.2393 92.1132 35.5845Z" fill="#2196F3" transform="matrix(1.00962 0 0 1 43.002 101)"/><path d="M0 4.79083 0 60.8467C0 63.4943 2.14327 65.6375 4.79083 65.6375L7.48567 65.6533 65.6533 65.8897 69.2149 65.9054 90.0802 65.9842C90.2536 65.9842 90.4269 65.9685 90.6003 65.9527 90.7736 65.937 90.947 65.9054 91.1046 65.8739 91.4355 65.7951 91.7665 65.7006 92.0659 65.5587 92.3023 65.4484 92.5229 65.3223 92.7278 65.1963 92.9327 65.0702 93.1375 64.8968 93.3266 64.7235 93.3897 64.6605 93.4527 64.5974 93.5158 64.5501 93.5788 64.4871 93.6418 64.4241 93.6891 64.361L93.6891 64.361 105.509 52.9828 108.188 50.414 119.251 39.7607 122.607 36.5301C124.152 34.765 124.183 32.149 122.702 30.3367L94.3825 2.11175C93.4685 0.992837 92.1132 0.346705 90.6633 0.346705L7.72206 0.0157593 4.79083 0C2.14327 0 0 2.14327 0 4.79083ZM88.2364 39.4928C84.4226 35.6791 84.4226 29.4857 88.2364 25.6719 92.0501 21.8582 98.2436 21.8582 102.057 25.6719 105.871 29.4857 105.871 35.6791 102.057 39.4928 98.2278 43.3223 92.0501 43.3223 88.2364 39.4928Z" fill="#093371" transform="matrix(1.00962 0 0 1 43.002 101)"/><path d="M63.3209 33C63.3209 43.6619 54.6777 52.3052 44.0158 52.3052 33.3538 52.3052 24.7106 43.6619 24.7106 33 24.7106 22.3381 33.3538 13.6948 44.0158 13.6948 54.6777 13.6948 63.3209 22.3381 63.3209 33Z" stroke="#FFFFFF" stroke-width="3.73961" stroke-linecap="round" stroke-miterlimit="10" fill="#FFFFFF" transform="matrix(1.00962 0 0 1 43.002 101)"/><path d="M41.4155 26.9169 44.1733 26.9169 44.0946 44.4255" stroke="#093371" stroke-width="3.73961" stroke-linecap="round" stroke-miterlimit="10" fill="none" transform="matrix(1.00962 0 0 1 43.002 101)"/><path d="M44.2521 21.2593C44.2521 21.3463 44.1816 21.4169 44.0946 21.4169 44.0075 21.4169 43.937 21.3463 43.937 21.2593 43.937 21.1723 44.0075 21.1017 44.0946 21.1017 44.1816 21.1017 44.2521 21.1723 44.2521 21.2593Z" stroke="#093371" stroke-width="3.73961" stroke-linecap="round" stroke-miterlimit="10" fill="none" transform="matrix(1.00962 0 0 1 43.002 101)"/><path d="M46.7736 44.7722 41.4155 44.7722" stroke="#093371" stroke-width="3.73961" stroke-linecap="round" stroke-miterlimit="10" fill="none" transform="matrix(1.00962 0 0 1 43.002 101)"/></g></g><text fill="#393D4D" font-family="Rubik,Rubik_MSFontService,sans-serif" font-weight="500" font-size="19" transform="translate(45.2375 190)">Data element</text><rect x="34.5001" y="58.5001" width="163" height="163" stroke="#FFFFFF" stroke-width="1.13333" stroke-linejoin="round" stroke-miterlimit="10" fill="none"/><rect x="35.5001" y="64.5001" width="163" height="163" stroke="#FFFFFF" stroke-width="1.13333" stroke-linejoin="round" stroke-miterlimit="10" fill="none"/><rect x="37.5001" y="58.5001" width="163" height="163" stroke="#FFFFFF" stroke-width="1.13333" stroke-linejoin="round" stroke-miterlimit="10" fill="none"/></g></svg>