<?xml version="1.0" encoding="utf-8"?>
<!-- Generator: Adobe Illustrator 25.0.1, SVG Export Plug-In . SVG Version: 6.00 Build 0)  -->
<svg version="1.1" id="Layer_1" xmlns="http://www.w3.org/2000/svg" xmlns:xlink="http://www.w3.org/1999/xlink" x="0px" y="0px"
	 viewBox="0 0 1080 1080" style="enable-background:new 0 0 1080 1080;" xml:space="preserve">
<style type="text/css">
	.st0{fill:#093371;}
	.st1{fill:#FF8F02;}
	.st2{fill:#2196F3;}
	.st3{fill:#FFFFFF;}
</style>
<g>
	<path class="st0" d="M607.8,612.3c0,40.3-14.2,77.4-37.8,106.5c-1.5,1.8-1.4,4.5,0.3,6.1l58.5,58.5c1.9,1.9,5,1.8,6.7-0.2
		c39.8-45.8,63.9-105.6,63.9-170.9c0-137.5-106.9-250.5-241.9-260.2c-2.6-0.2-4.9,1.9-4.9,4.6v82.7c0,2.3,1.7,4.3,4.1,4.6
		C541.4,453,607.8,525.1,607.8,612.3z"/>
	<path class="st1" d="M421.8,356.9c0-2.7-2.3-4.8-4.9-4.6c-113.1,9.3-206,91-232.1,198.6c-0.6,2.6,1.1,5.2,3.8,5.6l13.9,2.2
		l224.7,40.4c4.5,1.1,8.8-2.5,8.6-7.1L421.8,356.9z"/>
	<path class="st0" d="M438.4,781.7c-93.4,0-169.4-76-169.4-169.4c0-2.6,0.1-5.2,0.2-7.8c0.1-2.3-1.6-4.3-3.9-4.7l-81.7-13.1
		c-2.6-0.4-5.1,1.5-5.3,4.1c-0.6,7.1-0.9,14.2-0.9,21.5c0,143.9,117.1,260.9,260.9,260.9c64,0,122.8-23.2,168.2-61.6
		c2-1.7,2.1-4.8,0.3-6.7l-58.5-58.5c-1.6-1.6-4.3-1.8-6.1-0.4C513.6,768.3,477.5,781.7,438.4,781.7z"/>
	<g>
		<path class="st2" d="M707.8,206.8H561.3c-107.9,0-195.3,87.5-195.3,195.3s87.5,195.3,195.3,195.3h44.9l110.4,121
			c4.4,3.6,9.9,5.6,15.6,5.6c3.5,0,7-0.7,10.3-2.2c8.7-4,14.2-12.7,14.2-22.2V591.1c85.8-22.4,145.7-99.8,145.9-188.4
			C902.9,294.8,815.6,207.1,707.8,206.8z"/>
		<path class="st3" d="M634.5,377.7L634.5,377.7c13.5,0,24.4,10.9,24.4,24.4v0c0,13.5-10.9,24.4-24.4,24.4h0
			c-13.5,0-24.4-10.9-24.4-24.4v0C610.1,388.6,621,377.7,634.5,377.7z"/>
		<path class="st3" d="M512.4,377.7L512.4,377.7c13.5,0,24.4,10.9,24.4,24.4v0c0,13.5-10.9,24.4-24.4,24.4h0
			c-13.5,0-24.4-10.9-24.4-24.4v0C488,388.6,498.9,377.7,512.4,377.7z"/>
		<path class="st3" d="M756.6,377.7L756.6,377.7c13.5,0,24.4,10.9,24.4,24.4v0c0,13.5-10.9,24.4-24.4,24.4l0,0
			c-13.5,0-24.4-10.9-24.4-24.4v0C732.2,388.6,743.1,377.7,756.6,377.7z"/>
	</g>
</g>
</svg>
