<?xml version="1.0" encoding="utf-8"?>
<!-- Generator: Adobe Illustrator 25.0.1, SVG Export Plug-In . SVG Version: 6.00 Build 0)  -->
<svg version="1.1" id="Layer_1" xmlns="http://www.w3.org/2000/svg" xmlns:xlink="http://www.w3.org/1999/xlink" x="0px" y="0px"
	 viewBox="0 0 1080 1080" style="enable-background:new 0 0 1080 1080;" xml:space="preserve">
<style type="text/css">
	.st0{fill:#093371;}
	.st1{fill:#FFFFFF;}
	.st2{fill:#FF8F02;}
</style>
<g>
	<path class="st0" d="M364.6,328.1l50.1-118.7c0.3-0.8,0.8-1.6,1.3-2.3l38.8-53.7c1.2-1.7,2.9-3.1,4.9-3.9l19.2-8.4
		c1.5-0.6,3.1-1,4.7-1h12.9c2.9,0,5.6,1,7.8,2.9l31.6,27.6c1,0.9,1.9,2,2.6,3.2l26,47.2c1.1,2,1.6,4.3,1.4,6.5l-3.8,53.1
		c-0.1,2,0.2,3.9,1,5.7L646,469.6c0.2,0.5,0.4,0.9,0.5,1.4l74.6,246.1c0.3,1.1,0.5,2.3,0.5,3.4V767c0,1.6-0.3,3.2-1,4.7l-13.5,31.1
		c-0.3,0.7-0.6,1.3-1,1.9l-74.3,111c-0.4,0.6-0.9,1.2-1.5,1.8l-18.9,18.9c-2.3,2.3-5.5,3.6-8.8,3.5l-57.1-2
		c-2.1-0.1-4.1-0.7-5.8-1.8l-39.9-24.8c-1-0.6-2-1.4-2.8-2.4l-28.7-33.7c-0.6-0.7-1.2-1.5-1.6-2.4l-28.6-57.3
		c-0.3-0.7-0.6-1.4-0.8-2.1l-25.9-93.2c-0.3-0.9-0.4-1.9-0.4-2.8l-2.4-88c-0.1-2.3-0.8-4.6-2.1-6.5l-42-59.8c-0.8-1.2-1.5-2.6-1.8-4
		l-4-16.5c-0.4-1.6-0.4-3.3-0.1-5l15.1-80.4c0.1-0.8,0.2-1.6,0.2-2.3l-1-79.5c0-0.8-0.1-1.6-0.3-2.4l-8.5-37.6
		C363.5,332.9,363.7,330.4,364.6,328.1z"/>
	<g>
		<path class="st1" d="M593.2,603.9c-30.7,0-55.7,25-55.7,55.7c0,17.4,10,41.4,28.9,69.4c3,4.5,6.1,8.8,9,12.7
			c0.4,0.5,0.7,1,1.1,1.4c0.4,0.5,0.7,1,1.1,1.4c6.8,9,12.6,15.9,15.7,19.5c3.1-3.6,8.9-10.5,15.7-19.6c0.4-0.5,0.7-1,1.1-1.4
			c0.4-0.5,0.7-1,1.1-1.5c2.9-3.9,6-8.2,9-12.7c18.8-28,28.8-51.9,28.8-69.3C648.9,628.9,623.9,603.9,593.2,603.9z M594.2,688.5
			c-15.6,0-28.3-12.7-28.3-28.3s12.7-28.3,28.3-28.3c15.6,0,28.3,12.7,28.3,28.3S609.8,688.5,594.2,688.5z"/>
		<path class="st2" d="M594.2,637c-12.8,0-23.1,10.4-23.1,23.1c0,12.8,10.4,23.1,23.1,23.1c3.8,0,7.4-0.9,10.5-2.5
			c7.4-4,12.5-11.9,12.6-20.9C617.1,647.2,606.8,637,594.2,637z"/>
	</g>
</g>
</svg>
