<svg width="166" height="166" xmlns="http://www.w3.org/2000/svg" xmlns:xlink="http://www.w3.org/1999/xlink" overflow="hidden"><defs><clipPath id="clip0"><rect x="354" y="63" width="166" height="166"/></clipPath><clipPath id="clip1"><rect x="370" y="73" width="134" height="130"/></clipPath><clipPath id="clip2"><rect x="370" y="73" width="134" height="130"/></clipPath><clipPath id="clip3"><rect x="370" y="73" width="134" height="130"/></clipPath></defs><g clip-path="url(#clip0)" transform="translate(-354 -63)"><g clip-path="url(#clip1)"><g clip-path="url(#clip2)"><g clip-path="url(#clip3)"><path d="M43.887 39.4935 49.9176 25.2056C49.9537 25.1093 50.0139 25.013 50.0741 24.9287L54.7444 18.4648C54.8889 18.2602 55.0935 18.0917 55.3343 17.9954L57.6454 16.9843C57.8259 16.912 58.0185 16.8639 58.2111 16.8639L59.7639 16.8639C60.113 16.8639 60.438 16.9843 60.7028 17.213L64.5065 20.5352C64.6269 20.6435 64.7352 20.7759 64.8194 20.9204L67.9491 26.6019C68.0815 26.8426 68.1417 27.1194 68.1176 27.3843L67.6602 33.7759C67.6481 34.0167 67.6843 34.2454 67.7806 34.462L77.7593 56.5259C77.7833 56.5861 77.8074 56.6343 77.8194 56.6944L86.7991 86.3176C86.8352 86.45 86.8593 86.5945 86.8593 86.7269L86.8593 92.3241C86.8593 92.5167 86.8232 92.7093 86.7389 92.8898L85.1139 96.6333C85.0778 96.7176 85.0417 96.7898 84.9935 96.862L76.05 110.223C76.0019 110.295 75.9417 110.368 75.8694 110.44L73.5945 112.715C73.3176 112.992 72.9324 113.148 72.5352 113.136L65.662 112.895C65.4093 112.883 65.1685 112.811 64.9639 112.679L60.1611 109.694C60.0407 109.621 59.9204 109.525 59.8241 109.405L56.3694 105.348C56.2972 105.264 56.225 105.168 56.1769 105.059L52.7343 98.162C52.6981 98.0778 52.662 97.9935 52.638 97.9093L49.5204 86.6907C49.4843 86.5824 49.4722 86.462 49.4722 86.3537L49.1833 75.7611C49.1713 75.4843 49.087 75.2074 48.9306 74.9787L43.875 67.7806C43.7787 67.6361 43.6944 67.4676 43.6583 67.2991L43.1769 65.313C43.1287 65.1204 43.1287 64.9157 43.1648 64.7111L44.9824 55.0333C44.9944 54.937 45.0065 54.8407 45.0065 54.7565L44.8861 45.187C44.8861 45.0907 44.8741 44.9944 44.85 44.8981L43.8269 40.3722C43.7546 40.0713 43.7787 39.7704 43.887 39.4935Z" fill="#093371" transform="matrix(1.03077 0 0 1 370 73)"/><path d="M71.4037 72.6917C67.7083 72.6917 64.6991 75.7009 64.6991 79.3963 64.6991 81.4907 65.9028 84.3796 68.1778 87.75 68.5389 88.2917 68.912 88.8093 69.2611 89.2787 69.3093 89.3389 69.3454 89.3991 69.3935 89.4472 69.4417 89.5074 69.4778 89.5676 69.5259 89.6157 70.3445 90.6991 71.0426 91.5296 71.4157 91.963 71.7889 91.5296 72.487 90.6991 73.3056 89.6037 73.3537 89.5435 73.3898 89.4833 73.438 89.4352 73.4861 89.375 73.5222 89.3148 73.5704 89.2546 73.9194 88.7852 74.2926 88.2676 74.6537 87.7259 76.9167 84.3556 78.1204 81.4787 78.1204 79.3843 78.1083 75.7009 75.0991 72.6917 71.4037 72.6917ZM71.5241 82.875C69.6463 82.875 68.1176 81.3463 68.1176 79.4685 68.1176 77.5907 69.6463 76.062 71.5241 76.062 73.4019 76.062 74.9306 77.5907 74.9306 79.4685 74.9306 81.3463 73.4019 82.875 71.5241 82.875Z" fill="#FFFFFF" transform="matrix(1.03077 0 0 1 370 73)"/><path d="M71.5241 76.6759C69.9833 76.6759 68.7435 77.9278 68.7435 79.4565 68.7435 80.9972 69.9954 82.237 71.5241 82.237 71.9815 82.237 72.4148 82.1287 72.788 81.9361 73.6787 81.4546 74.2926 80.5037 74.3046 79.4204 74.2806 77.9037 73.0407 76.6759 71.5241 76.6759Z" fill="#FF8F02" transform="matrix(1.03077 0 0 1 370 73)"/></g></g></g><text fill="#393D4D" font-family="Rubik,Rubik_MSFontService,sans-serif" font-weight="500" font-size="19" transform="translate(413.376 212)">Maps</text><rect x="355.5" y="64.5001" width="164" height="164" stroke="#FFFFFF" stroke-width="1.13333" stroke-linejoin="round" stroke-miterlimit="10" fill="none"/></g></svg>