<svg width="182" height="182" xmlns="http://www.w3.org/2000/svg" xmlns:xlink="http://www.w3.org/1999/xlink" overflow="hidden"><defs><clipPath id="clip0"><rect x="234" y="45" width="182" height="182"/></clipPath><clipPath id="clip1"><rect x="258" y="66" width="130" height="130"/></clipPath><clipPath id="clip2"><rect x="258" y="66" width="130" height="130"/></clipPath><clipPath id="clip3"><rect x="258" y="66" width="130" height="130"/></clipPath></defs><g clip-path="url(#clip0)" transform="translate(-234 -45)"><g clip-path="url(#clip1)"><g clip-path="url(#clip2)"><g clip-path="url(#clip3)"><path d="M322.603 124.392C329.271 124.392 334.7 118.963 334.7 112.294 334.7 105.626 329.271 100.197 322.603 100.197 315.934 100.197 310.506 105.626 310.506 112.294 310.506 118.963 315.934 124.392 322.603 124.392ZM322.603 102.412C328.007 102.412 332.401 106.769 332.485 112.15 332.485 112.198 332.485 112.246 332.485 112.294 332.485 116.122 330.294 119.444 327.105 121.081 325.756 121.78 324.228 122.165 322.603 122.165 317.15 122.165 312.72 117.735 312.72 112.282 312.72 106.83 317.162 102.412 322.603 102.412Z" fill="#FFFFFF"/><path d="M343.018 151.74C339.84 150.344 336.06 149.32 331.931 148.694 327.201 155.098 323.241 159.492 323.193 159.54L322.218 160.623 321.243 159.54C321.194 159.48 317.258 155.11 312.528 148.731 308.507 149.356 304.824 150.368 301.719 151.728 296.386 154.063 293.449 157.096 293.449 160.286 293.449 163.476 296.386 166.509 301.719 168.844 307.219 171.252 314.562 172.588 322.374 172.588 330.186 172.588 337.517 171.264 343.03 168.844 348.362 166.509 351.299 163.476 351.299 160.286 351.299 157.096 348.35 154.075 343.018 151.74Z" fill="#093371"/><path d="M314.586 147.118C314.743 147.322 314.899 147.527 315.044 147.731 315.2 147.936 315.356 148.141 315.501 148.345 318.39 152.185 320.894 155.146 322.194 156.663 323.506 155.146 326.009 152.161 328.91 148.309 329.067 148.105 329.223 147.9 329.38 147.695 329.536 147.491 329.681 147.286 329.837 147.069 331.077 145.384 332.377 143.567 333.677 141.641 341.73 129.7 345.979 119.469 345.979 112.03 345.979 98.9093 335.302 88.2444 322.194 88.2444 309.085 88.2444 298.408 98.9213 298.408 112.03 298.408 119.469 302.669 129.712 310.734 141.665 312.046 143.603 313.346 145.432 314.586 147.118ZM322.603 100.197C329.271 100.197 334.7 105.626 334.7 112.294 334.7 118.963 329.271 124.392 322.603 124.392 315.934 124.392 310.506 118.963 310.506 112.294 310.506 105.626 315.934 100.197 322.603 100.197Z" fill="#093371"/><path d="M327.105 121.081C330.294 119.444 332.485 116.122 332.485 112.294 332.485 112.246 332.485 112.198 332.485 112.15 332.449 116.002 330.282 119.36 327.105 121.081Z" fill="#43CBCB"/><path d="M322.603 122.177C324.228 122.177 325.756 121.78 327.105 121.094 330.282 119.36 332.449 116.014 332.485 112.162 332.413 106.781 328.007 102.424 322.603 102.424 317.15 102.424 312.72 106.854 312.72 112.306 312.72 117.759 317.162 122.177 322.603 122.177Z" fill="#2196F3"/></g></g></g><text fill="#393D4D" font-family="Rubik,Rubik_MSFontService,sans-serif" font-weight="500" font-size="19" transform="translate(265.043 189)">Organisation <tspan font-size="19" x="39.8333" y="19">unit</tspan></text></g></svg>