<?xml version="1.0" encoding="utf-8"?>
<!-- Generator: Adobe Illustrator 25.0.1, SVG Export Plug-In . SVG Version: 6.00 Build 0)  -->
<svg version="1.1" id="Layer_1" xmlns="http://www.w3.org/2000/svg" xmlns:xlink="http://www.w3.org/1999/xlink" x="0px" y="0px"
	 viewBox="0 0 1080 1080" style="enable-background:new 0 0 1080 1080;" xml:space="preserve">
<style type="text/css">
	.st0{fill:#093371;}
	.st1{fill:#2196F3;}
	.st2{fill:#FFFFFF;}
	.st3{fill:#FF8F02;}
</style>
<g>
	<path class="st0" d="M892.3,822H187.7c-6.9,0-12.5-5.6-12.5-12.5v-539c0-6.9,5.6-12.5,12.5-12.5h704.6c6.9,0,12.5,5.6,12.5,12.5
		v539C904.8,816.4,899.2,822,892.3,822z"/>
	<path class="st1" d="M411.8,351.7h-98.5c-4.5,0-8.1-3.6-8.1-8.1v-45.5c0-4.5,3.6-8.1,8.1-8.1h98.5c4.5,0,8.1,3.6,8.1,8.1v45.5
		C419.9,348.1,416.2,351.7,411.8,351.7z"/>
	<path class="st1" d="M562.5,351.7H464c-4.5,0-8.1-3.6-8.1-8.1v-45.5c0-4.5,3.6-8.1,8.1-8.1h98.5c4.5,0,8.1,3.6,8.1,8.1v45.5
		C570.6,348.1,566.9,351.7,562.5,351.7z"/>
	<path class="st1" d="M714,351.7h-98.5c-4.5,0-8.1-3.6-8.1-8.1v-45.5c0-4.5,3.6-8.1,8.1-8.1H714c4.5,0,8.1,3.6,8.1,8.1v45.5
		C722.1,348.1,718.4,351.7,714,351.7z"/>
	<path class="st2" d="M411.4,497.6h-98.5c-4.5,0-8.1-3.6-8.1-8.1v-98.5c0-4.5,3.6-8.1,8.1-8.1h98.5c4.5,0,8.1,3.6,8.1,8.1v98.5
		C419.5,494,415.8,497.6,411.4,497.6z"/>
	<path class="st3" d="M261.9,497.6h-45.5c-4.5,0-8.1-3.6-8.1-8.1v-98.5c0-4.5,3.6-8.1,8.1-8.1h45.5c4.5,0,8.1,3.6,8.1,8.1v98.5
		C270,494,266.3,497.6,261.9,497.6z"/>
	<path class="st2" d="M562.5,497.6H464c-4.5,0-8.1-3.6-8.1-8.1v-98.5c0-4.5,3.6-8.1,8.1-8.1h98.5c4.5,0,8.1,3.6,8.1,8.1v98.5
		C570.6,494,566.9,497.6,562.5,497.6z"/>
	<path class="st2" d="M714,497.6h-98.5c-4.5,0-8.1-3.6-8.1-8.1v-98.5c0-4.5,3.6-8.1,8.1-8.1H714c4.5,0,8.1,3.6,8.1,8.1v98.5
		C722.1,494,718.4,497.6,714,497.6z"/>
	<path class="st3" d="M261.9,643.5h-45.5c-4.5,0-8.1-3.6-8.1-8.1V537c0-4.5,3.6-8.1,8.1-8.1h45.5c4.5,0,8.1,3.6,8.1,8.1v98.5
		C270,639.9,266.3,643.5,261.9,643.5z"/>
	<path class="st2" d="M562.5,643.5H464c-4.5,0-8.1-3.6-8.1-8.1V537c0-4.5,3.6-8.1,8.1-8.1h98.5c4.5,0,8.1,3.6,8.1,8.1v98.5
		C570.6,639.9,566.9,643.5,562.5,643.5z"/>
	<path class="st2" d="M714,643.5h-98.5c-4.5,0-8.1-3.6-8.1-8.1V537c0-4.5,3.6-8.1,8.1-8.1H714c4.5,0,8.1,3.6,8.1,8.1v98.5
		C722.1,639.9,718.4,643.5,714,643.5z"/>
	<path class="st2" d="M411.4,643.5h-98.5c-4.5,0-8.1-3.6-8.1-8.1V537c0-4.5,3.6-8.1,8.1-8.1h98.5c4.5,0,8.1,3.6,8.1,8.1v98.5
		C419.5,639.9,415.8,643.5,411.4,643.5z"/>
	<path class="st3" d="M261.9,789.4h-45.5c-4.5,0-8.1-3.6-8.1-8.1v-98.5c0-4.5,3.6-8.1,8.1-8.1h45.5c4.5,0,8.1,3.6,8.1,8.1v98.5
		C270,785.8,266.3,789.4,261.9,789.4z"/>
	<path class="st2" d="M562.5,789.4H464c-4.5,0-8.1-3.6-8.1-8.1v-98.5c0-4.5,3.6-8.1,8.1-8.1h98.5c4.5,0,8.1,3.6,8.1,8.1v98.5
		C570.6,785.8,566.9,789.4,562.5,789.4z"/>
	<path class="st2" d="M714,789.4h-98.5c-4.5,0-8.1-3.6-8.1-8.1v-98.5c0-4.5,3.6-8.1,8.1-8.1H714c4.5,0,8.1,3.6,8.1,8.1v98.5
		C722.1,785.8,718.4,789.4,714,789.4z"/>
	<path class="st1" d="M865.5,351.7H767c-4.5,0-8.1-3.6-8.1-8.1v-45.5c0-4.5,3.6-8.1,8.1-8.1h98.5c4.5,0,8.1,3.6,8.1,8.1v45.5
		C873.6,348.1,870,351.7,865.5,351.7z"/>
	<path class="st2" d="M865.5,497.6H767c-4.5,0-8.1-3.6-8.1-8.1v-98.5c0-4.5,3.6-8.1,8.1-8.1h98.5c4.5,0,8.1,3.6,8.1,8.1v98.5
		C873.6,494,870,497.6,865.5,497.6z"/>
	<path class="st2" d="M865.5,643.5H767c-4.5,0-8.1-3.6-8.1-8.1V537c0-4.5,3.6-8.1,8.1-8.1h98.5c4.5,0,8.1,3.6,8.1,8.1v98.5
		C873.6,639.9,870,643.5,865.5,643.5z"/>
	<path class="st2" d="M865.5,789.4H767c-4.5,0-8.1-3.6-8.1-8.1v-98.5c0-4.5,3.6-8.1,8.1-8.1h98.5c4.5,0,8.1,3.6,8.1,8.1v98.5
		C873.6,785.8,870,789.4,865.5,789.4z"/>
	<path class="st2" d="M411.4,789.4h-98.5c-4.5,0-8.1-3.6-8.1-8.1v-98.5c0-4.5,3.6-8.1,8.1-8.1h98.5c4.5,0,8.1,3.6,8.1,8.1v98.5
		C419.5,785.8,415.8,789.4,411.4,789.4z"/>
</g>
</svg>
