<svg width="165" height="169" xmlns="http://www.w3.org/2000/svg" xmlns:xlink="http://www.w3.org/1999/xlink" overflow="hidden"><defs><clipPath id="clip0"><rect x="503" y="61" width="165" height="169"/></clipPath><clipPath id="clip1"><rect x="512" y="65" width="147" height="147"/></clipPath><clipPath id="clip2"><rect x="512" y="65" width="147" height="147"/></clipPath><clipPath id="clip3"><rect x="512" y="65" width="147" height="147"/></clipPath></defs><g clip-path="url(#clip0)" transform="translate(-503 -61)"><rect x="504.5" y="62.5001" width="163" height="163" stroke="#FFFFFF" stroke-width="1.13333" stroke-linejoin="round" stroke-miterlimit="10" fill="none"/><g clip-path="url(#clip1)"><g clip-path="url(#clip2)"><g clip-path="url(#clip3)"><path d="M611.13 97.83 611.13 88.4247 550.193 88.4247C549.39 88.4247 548.736 89.0781 548.736 89.8811L548.736 187.119C548.736 187.922 549.39 188.575 550.193 188.575L620.821 188.575C621.624 188.575 622.277 187.922 622.277 187.119L622.277 99.3272 612.627 99.3272C611.797 99.3272 611.13 98.6467 611.13 97.83Z" fill="#093371"/><path d="M611.13 97.7756C611.13 98.6331 611.824 99.3272 612.681 99.3272L622.277 99.3272 611.143 88.4383 611.143 97.7756Z" fill="#FF8F02"/><path d="M610.476 154.139 560.442 154.139C559.898 154.139 559.462 153.704 559.462 153.159 559.462 152.615 559.898 152.179 560.442 152.179L610.476 152.179C611.021 152.179 611.456 152.615 611.456 153.159 611.456 153.704 611.021 154.139 610.476 154.139Z" fill="#FFFFFF"/><path d="M610.476 164.565 560.442 164.565C559.898 164.565 559.462 164.13 559.462 163.585 559.462 163.041 559.898 162.605 560.442 162.605L610.476 162.605C611.021 162.605 611.456 163.041 611.456 163.585 611.456 164.13 611.021 164.565 610.476 164.565Z" fill="#FFFFFF"/><path d="M610.476 175.372 560.442 175.372C559.898 175.372 559.462 174.937 559.462 174.393 559.462 173.848 559.898 173.413 560.442 173.413L610.476 173.413C611.021 173.413 611.456 173.848 611.456 174.393 611.456 174.937 611.021 175.372 610.476 175.372Z" fill="#FFFFFF"/><path d="M599.683 120.996C599.683 124.399 598.485 127.516 596.498 129.966 596.375 130.116 596.375 130.347 596.525 130.483L601.452 135.41C601.616 135.574 601.874 135.56 602.024 135.397 605.372 131.531 607.414 126.495 607.414 120.996 607.414 109.399 598.403 99.8853 587.024 99.055 586.807 99.0414 586.616 99.2183 586.616 99.4361L586.616 106.405C586.616 106.596 586.766 106.772 586.956 106.786 594.089 107.562 599.683 113.646 599.683 120.996Z" fill="#2196F3"/><path d="M584.016 106.432 584.016 99.4497C584.016 99.2183 583.826 99.0414 583.594 99.0686 574.053 99.8444 566.227 106.745 564.022 115.81 563.967 116.028 564.117 116.246 564.335 116.287L571.222 117.389C571.412 117.416 571.603 117.294 571.657 117.103 573.196 111.659 577.905 107.521 583.649 106.827 583.867 106.8 584.016 106.636 584.016 106.432Z" fill="#FFFFFF"/><path d="M585.405 135.274C577.537 135.274 571.127 128.863 571.127 120.996 571.127 120.778 571.127 120.561 571.14 120.343 571.154 120.152 571.004 119.975 570.814 119.948L563.926 118.846C563.709 118.805 563.491 118.968 563.477 119.199 563.423 119.798 563.409 120.397 563.409 121.01 563.409 133.137 573.277 143.005 585.405 143.005 590.808 143.005 595.749 141.045 599.588 137.806 599.764 137.656 599.764 137.398 599.615 137.234L594.688 132.307C594.551 132.171 594.334 132.157 594.17 132.266 591.747 134.144 588.699 135.274 585.405 135.274Z" fill="#2196F3"/></g></g></g><text fill="#393D4D" font-family="Rubik,Rubik_MSFontService,sans-serif" font-weight="500" font-size="19" transform="translate(553.194 213)">Reports</text></g></svg>