<svg width="181" height="189" xmlns="http://www.w3.org/2000/svg" xmlns:xlink="http://www.w3.org/1999/xlink" overflow="hidden"><defs><clipPath id="clip0"><rect x="438" y="46" width="181" height="189"/></clipPath><clipPath id="clip1"><rect x="454" y="58" width="148" height="148"/></clipPath><clipPath id="clip2"><rect x="454" y="58" width="148" height="148"/></clipPath><clipPath id="clip3"><rect x="454" y="58" width="148" height="148"/></clipPath></defs><g clip-path="url(#clip0)" transform="translate(-438 -46)"><rect x="446.5" y="56.5001" width="163" height="163" stroke="#FFFFFF" stroke-width="1.13333" stroke-linejoin="round" stroke-miterlimit="10" fill="none"/><g clip-path="url(#clip1)"><g clip-path="url(#clip2)"><g clip-path="url(#clip3)"><path d="M560.217 182.156 495.783 182.156C495.152 182.156 494.631 181.649 494.631 181.004L494.631 92.7252C494.631 92.0948 495.139 91.5741 495.783 91.5741L560.231 91.5741C560.861 91.5741 561.382 92.0811 561.382 92.7252L561.382 181.018C561.369 181.649 560.861 182.156 560.217 182.156Z" fill="#093371"/><path d="M550.666 112.486 522.628 112.486C522.135 112.486 521.737 112.089 521.737 111.595 521.737 111.102 522.135 110.704 522.628 110.704L550.68 110.704C551.173 110.704 551.57 111.102 551.57 111.595 551.57 112.089 551.159 112.486 550.666 112.486Z" fill="#FFFFFF"/><path d="M550.666 129.163 522.628 129.163C522.135 129.163 521.737 128.766 521.737 128.273 521.737 127.779 522.135 127.382 522.628 127.382L550.68 127.382C551.173 127.382 551.57 127.779 551.57 128.273 551.57 128.766 551.159 129.163 550.666 129.163Z" fill="#FFFFFF"/><path d="M550.666 145.841 522.628 145.841C522.135 145.841 521.737 145.443 521.737 144.95 521.737 144.457 522.135 144.059 522.628 144.059L550.68 144.059C551.173 144.059 551.57 144.457 551.57 144.95 551.57 145.443 551.159 145.841 550.666 145.841Z" fill="#FFFFFF"/><path d="M550.666 162.504 522.628 162.504C522.135 162.504 521.737 162.107 521.737 161.614 521.737 161.12 522.135 160.723 522.628 160.723L550.68 160.723C551.173 160.723 551.57 161.12 551.57 161.614 551.57 162.107 551.159 162.504 550.666 162.504Z" fill="#FFFFFF"/><path d="M513.501 116.035 506.143 116.035C505.69 116.035 505.334 115.679 505.334 115.227L505.334 107.868C505.334 107.416 505.69 107.059 506.143 107.059L513.501 107.059C513.954 107.059 514.31 107.416 514.31 107.868L514.31 115.227C514.31 115.679 513.94 116.035 513.501 116.035Z" fill="#FFFFFF"/><path d="M510.35 113.569C510.35 113.569 510.336 113.569 510.336 113.569 510.089 113.569 509.856 113.459 509.692 113.267L507.746 111.088C507.417 110.718 507.458 110.156 507.814 109.827 508.184 109.499 508.746 109.54 509.075 109.896L510.377 111.362 515.776 105.757C516.119 105.401 516.681 105.387 517.037 105.73 517.393 106.073 517.407 106.634 517.064 106.991L511.007 113.294C510.829 113.473 510.596 113.569 510.35 113.569Z" fill="#FF8F02"/><path d="M513.501 132.617 506.143 132.617C505.69 132.617 505.334 132.26 505.334 131.808L505.334 124.449C505.334 123.997 505.69 123.641 506.143 123.641L513.501 123.641C513.954 123.641 514.31 123.997 514.31 124.449L514.31 131.808C514.31 132.26 513.94 132.617 513.501 132.617Z" fill="#FFFFFF"/><path d="M510.35 130.15C510.35 130.15 510.336 130.15 510.336 130.15 510.089 130.15 509.856 130.04 509.692 129.849L507.746 127.67C507.417 127.3 507.458 126.738 507.814 126.409 508.184 126.08 508.746 126.121 509.075 126.477L510.377 127.944 515.776 122.339C516.119 121.983 516.681 121.969 517.037 122.311 517.393 122.654 517.407 123.216 517.064 123.572L511.007 129.876C510.829 130.054 510.596 130.15 510.35 130.15Z" fill="#2196F3"/><path d="M513.501 149.061 506.143 149.061C505.69 149.061 505.334 148.705 505.334 148.253L505.334 140.894C505.334 140.441 505.69 140.085 506.143 140.085L513.501 140.085C513.954 140.085 514.31 140.441 514.31 140.894L514.31 148.253C514.31 148.705 513.94 149.061 513.501 149.061Z" fill="#FFFFFF"/><path d="M510.35 146.594C510.35 146.594 510.336 146.594 510.336 146.594 510.089 146.594 509.856 146.485 509.692 146.293L507.746 144.114C507.417 143.744 507.458 143.182 507.814 142.853 508.184 142.524 508.746 142.566 509.075 142.922L510.377 144.388 515.776 138.783C516.119 138.427 516.681 138.413 517.037 138.756 517.393 139.099 517.407 139.66 517.064 140.017L511.007 146.32C510.829 146.499 510.596 146.594 510.35 146.594Z" fill="#FF8F02"/><path d="M513.501 165.917 506.143 165.917C505.69 165.917 505.334 165.56 505.334 165.108L505.334 157.749C505.334 157.297 505.69 156.941 506.143 156.941L513.501 156.941C513.954 156.941 514.31 157.297 514.31 157.749L514.31 165.108C514.31 165.56 513.94 165.917 513.501 165.917Z" fill="#FFFFFF"/><path d="M510.35 163.45C510.35 163.45 510.336 163.45 510.336 163.45 510.089 163.45 509.856 163.34 509.692 163.149L507.746 160.97C507.417 160.6 507.458 160.038 507.814 159.709 508.184 159.38 508.746 159.421 509.075 159.777L510.377 161.244 515.776 155.639C516.119 155.283 516.681 155.269 517.037 155.611 517.393 155.954 517.407 156.516 517.064 156.872L511.007 163.176C510.829 163.354 510.596 163.45 510.35 163.45Z" fill="#2196F3"/><path d="M544.02 86.5037 538.278 86.5037 538.278 81.7622C538.278 81.5019 538.072 81.2963 537.812 81.2963L518.188 81.2963C517.928 81.2963 517.722 81.5019 517.722 81.7622L517.722 86.5037 511.98 86.5037C511.556 86.5037 511.213 86.8463 511.213 87.2711L511.213 96.6993C511.213 97.1241 511.556 97.4667 511.98 97.4667L544.02 97.4667C544.444 97.4667 544.787 97.1241 544.787 96.6993L544.787 87.2711C544.787 86.8463 544.444 86.5037 544.02 86.5037Z" fill="#2196F3"/><path d="M544.116 98.563 511.884 98.563C511.514 98.563 511.213 98.2615 511.213 97.8915L511.213 96.6444 544.787 96.6444 544.787 97.8915C544.787 98.2615 544.486 98.563 544.116 98.563Z" fill="#FFFFFF"/></g></g></g><text fill="#393D4D" font-family="Rubik,Rubik_MSFontService,sans-serif" font-weight="500" font-size="19" transform="translate(496.459 200)">Tracker <tspan font-size="19" x="-0.833344" y="19">capture</tspan></text></g></svg>