<?xml version="1.0" encoding="utf-8"?>
<!-- Generator: Adobe Illustrator 25.0.1, SVG Export Plug-In . SVG Version: 6.00 Build 0)  -->
<svg version="1.1" id="Layer_1" xmlns="http://www.w3.org/2000/svg" xmlns:xlink="http://www.w3.org/1999/xlink" x="0px" y="0px"
	 viewBox="0 0 1080 1080" style="enable-background:new 0 0 1080 1080;" xml:space="preserve">
<style type="text/css">
	.st0{fill:#093371;}
	.st1{fill:#FFFFFF;}
	.st2{fill:#FF8F02;}
	.st3{fill:#2196F3;}
</style>
<path class="st0" d="M775.1,906H304.9c-4.6,0-8.4-3.7-8.4-8.4V253.4c0-4.6,3.7-8.4,8.4-8.4h470.3c4.6,0,8.4,3.7,8.4,8.4v644.3
	C783.5,902.3,779.8,906,775.1,906z"/>
<path class="st1" d="M705.4,397.6H500.8c-3.6,0-6.5-2.9-6.5-6.5s2.9-6.5,6.5-6.5h204.7c3.6,0,6.5,2.9,6.5,6.5S709,397.6,705.4,397.6
	z"/>
<path class="st1" d="M705.4,519.3H500.8c-3.6,0-6.5-2.9-6.5-6.5s2.9-6.5,6.5-6.5h204.7c3.6,0,6.5,2.9,6.5,6.5S709,519.3,705.4,519.3
	z"/>
<path class="st1" d="M705.4,641H500.8c-3.6,0-6.5-2.9-6.5-6.5s2.9-6.5,6.5-6.5h204.7c3.6,0,6.5,2.9,6.5,6.5S709,641,705.4,641z"/>
<path class="st1" d="M705.4,762.6H500.8c-3.6,0-6.5-2.9-6.5-6.5s2.9-6.5,6.5-6.5h204.7c3.6,0,6.5,2.9,6.5,6.5S709,762.6,705.4,762.6
	z"/>
<path class="st1" d="M434.2,423.5h-53.7c-3.3,0-5.9-2.6-5.9-5.9v-53.7c0-3.3,2.6-5.9,5.9-5.9h53.7c3.3,0,5.9,2.6,5.9,5.9v53.7
	C440.1,420.9,437.4,423.5,434.2,423.5z"/>
<path class="st2" d="M411.2,405.5c0,0-0.1,0-0.1,0c-1.8,0-3.5-0.8-4.7-2.2l-14.2-15.9c-2.4-2.7-2.1-6.8,0.5-9.2
	c2.7-2.4,6.8-2.1,9.2,0.5l9.5,10.7l39.4-40.9c2.5-2.6,6.6-2.7,9.2-0.2c2.6,2.5,2.7,6.6,0.2,9.2l-44.2,46
	C414.7,404.8,413,405.5,411.2,405.5z"/>
<path class="st1" d="M434.2,544.5h-53.7c-3.3,0-5.9-2.6-5.9-5.9v-53.7c0-3.3,2.6-5.9,5.9-5.9h53.7c3.3,0,5.9,2.6,5.9,5.9v53.7
	C440.1,541.9,437.4,544.5,434.2,544.5z"/>
<path class="st3" d="M411.2,526.5c0,0-0.1,0-0.1,0c-1.8,0-3.5-0.8-4.7-2.2l-14.2-15.9c-2.4-2.7-2.1-6.8,0.5-9.2
	c2.7-2.4,6.8-2.1,9.2,0.5l9.5,10.7l39.4-40.9c2.5-2.6,6.6-2.7,9.2-0.2c2.6,2.5,2.7,6.6,0.2,9.2l-44.2,46
	C414.7,525.8,413,526.5,411.2,526.5z"/>
<path class="st1" d="M434.2,664.5h-53.7c-3.3,0-5.9-2.6-5.9-5.9v-53.7c0-3.3,2.6-5.9,5.9-5.9h53.7c3.3,0,5.9,2.6,5.9,5.9v53.7
	C440.1,661.9,437.4,664.5,434.2,664.5z"/>
<path class="st2" d="M411.2,646.5c0,0-0.1,0-0.1,0c-1.8,0-3.5-0.8-4.7-2.2l-14.2-15.9c-2.4-2.7-2.1-6.8,0.5-9.2
	c2.7-2.4,6.8-2.1,9.2,0.5l9.5,10.7l39.4-40.9c2.5-2.6,6.6-2.7,9.2-0.2c2.6,2.5,2.7,6.6,0.2,9.2l-44.2,46
	C414.7,645.8,413,646.5,411.2,646.5z"/>
<path class="st1" d="M434.2,787.5h-53.7c-3.3,0-5.9-2.6-5.9-5.9v-53.7c0-3.3,2.6-5.9,5.9-5.9h53.7c3.3,0,5.9,2.6,5.9,5.9v53.7
	C440.1,784.9,437.4,787.5,434.2,787.5z"/>
<path class="st3" d="M411.2,769.5c0,0-0.1,0-0.1,0c-1.8,0-3.5-0.8-4.7-2.2l-14.2-15.9c-2.4-2.7-2.1-6.8,0.5-9.2
	c2.7-2.4,6.8-2.1,9.2,0.5l9.5,10.7l39.4-40.9c2.5-2.6,6.6-2.7,9.2-0.2c2.6,2.5,2.7,6.6,0.2,9.2l-44.2,46
	C414.7,768.8,413,769.5,411.2,769.5z"/>
<path class="st3" d="M656.9,208H615v-34.6c0-1.9-1.5-3.4-3.4-3.4H468.4c-1.9,0-3.4,1.5-3.4,3.4V208h-41.9c-3.1,0-5.6,2.5-5.6,5.6
	v68.8c0,3.1,2.5,5.6,5.6,5.6h233.8c3.1,0,5.6-2.5,5.6-5.6v-68.8C662.5,210.5,660,208,656.9,208z"/>
<path class="st1" d="M657.6,296H422.4c-2.7,0-4.9-2.2-4.9-4.9V282h245v9.1C662.5,293.8,660.3,296,657.6,296z"/>
</svg>
