<?xml version="1.0" encoding="utf-8"?>
<!-- Generator: Adobe Illustrator 25.0.1, SVG Export Plug-In . SVG Version: 6.00 Build 0)  -->
<svg version="1.1" id="Layer_1" xmlns="http://www.w3.org/2000/svg" xmlns:xlink="http://www.w3.org/1999/xlink" x="0px" y="0px"
	 viewBox="0 0 1080 1080" style="enable-background:new 0 0 1080 1080;" xml:space="preserve">
<style type="text/css">
	.st0{fill:#093371;}
	.st1{fill:#2196F3;}
	.st2{fill:#FF8F02;}
</style>
<path class="st0" d="M514.6,706.2c-90.2-0.7-163.8-74.3-164.5-164.5c-0.7-92,73.9-167.1,165.8-167.1v52.6
	c-63.9,0-115.6,53.2-113.1,117.7c2.3,58.7,49.9,106.4,108.6,108.6c64.4,2.5,117.7-49.2,117.7-113.1c0-28.4-10.4-55.2-29.3-76
	c-2.1-2.3-2-5.8,0.1-8l29.1-29.1c2.3-2.3,6-2.2,8.2,0.1c28.7,30.8,44.5,70.7,44.5,113C681.7,632.3,606.6,706.9,514.6,706.2z"/>
<path class="st1" d="M515.9,795.4c-68.1,0-132.2-26.5-180.3-74.7c-47.9-47.9-74.7-112.6-74.7-180.3c0-68.1,26.5-132.2,74.7-180.3
	c48.2-48.2,112.2-74.7,180.3-74.7v53.2c-111.5,0-202.1,90.8-201.9,202.4c0.3,110.7,90.7,201.1,201.4,201.4
	c111.5,0.3,202.4-90.4,202.4-201.9c0-52.1-19.6-101.1-55.2-138.7c-2.1-2.3-2.1-5.8,0.1-8l29.5-29.5c2.3-2.3,6-2.2,8.2,0.1
	c45.6,47.7,70.6,110,70.6,176.1c0,67.7-26.8,132.5-74.7,180.3C648.1,768.9,584,795.4,515.9,795.4z"/>
<path class="st0" d="M834.1,405.5c-16.8-39.5-40.4-75.1-70.4-105.9c-2.2-2.3-5.9-2.3-8.2-0.1l-29,29.2c-2.2,2.2-2.2,5.8-0.1,8
	c53.2,54.9,82.4,127,82.4,203.7c0,78.2-30.5,151.8-85.8,207.1c-55.3,55.3-128.9,85.8-207.1,85.8c-76.9,0-150.5-30.1-205.3-84
	C254.1,693.8,223,619.5,223,540.4c0-77.9,32.8-151.2,92.4-206.5c46.2-42.8,104.1-70.9,167.2-81.6c2.8-0.5,5.4,1.7,5.4,4.6v220.4
	c-26.8,10.4-45.8,36.3-45.8,66.8c0,39.5,32.1,71.6,71.6,71.6s71.6-32.1,71.6-71.6c0-30-18.5-55.7-44.7-66.4l0.3-278.2
	c0-2.6-2.1-4.7-4.7-4.6c-96.9,1.1-187.9,36.7-256.7,100.5c-34.2,31.7-61,68.7-79.8,109.9c-19.5,42.8-29.4,88.3-29.4,135.2
	c0,46.6,9.1,91.9,27.2,134.5c17.4,41.2,42.3,78.1,74,109.8c31.7,31.7,68.7,56.6,109.8,74c42.6,18,87.9,27.2,134.5,27.2
	s91.9-9.1,134.5-27.2c41.2-17.4,78.1-42.3,109.8-74c31.7-31.7,56.6-68.7,74-109.8c18-42.6,27.2-87.9,27.2-134.5
	C861.5,493.6,852.3,448.2,834.1,405.5z"/>
<circle class="st2" cx="514.1" cy="543.8" r="19.9"/>
</svg>
