<svg width="181" height="181" xmlns="http://www.w3.org/2000/svg" xmlns:xlink="http://www.w3.org/1999/xlink" overflow="hidden"><defs><clipPath id="clip0"><rect x="25" y="49" width="181" height="181"/></clipPath><clipPath id="clip1"><rect x="42" y="62" width="136" height="136"/></clipPath><clipPath id="clip2"><rect x="42" y="62" width="136" height="136"/></clipPath><clipPath id="clip3"><rect x="42" y="62" width="136" height="136"/></clipPath></defs><g clip-path="url(#clip0)" transform="translate(-25 -49)"><g clip-path="url(#clip1)"><g clip-path="url(#clip2)"><g clip-path="url(#clip3)"><path d="M118.993 97.7208C118.996 98.1102 118.683 98.4284 118.294 98.4315 117.904 98.4345 117.586 98.1212 117.583 97.7318 117.58 97.3423 117.893 97.0241 118.283 97.0211 118.672 97.018 118.99 97.3313 118.993 97.7208Z" fill="#FF8F02" fill-rule="evenodd"/><path d="M175.079 160.121 126.584 160.121C126.559 161.28 126.081 161.884 125.489 161.884L111.436 161.884C110.844 161.884 110.365 161.28 110.34 160.121L61.9593 160.121C61.9341 160.121 61.9089 160.159 61.9089 160.222 61.9089 162.036 65.9385 163.61 68.3311 164.013L118.462 164.013 168.707 164.013C171.099 163.61 175.129 162.023 175.129 160.222 175.116 160.172 175.104 160.121 175.079 160.121Z" fill="#093371"/><path d="M147.501 100.974 158.494 100.974C159.01 100.974 159.426 101.39 159.426 101.906L159.426 152.818C159.426 153.334 159.01 153.75 158.494 153.75L116.813 153.75 147.501 100.974Z" fill="#2196F3" fill-rule="evenodd"/><path d="M162.096 95.9874 74.4511 95.9874C73.5444 95.9874 72.8015 96.7304 72.8015 97.637L72.8015 104.55 76.2519 104.563 76.2519 100.42C76.2519 99.8911 76.6674 99.4756 77.1963 99.4756L159.917 99.4756C160.433 99.4756 160.861 99.9037 160.861 100.42L160.861 154.228C160.861 154.757 160.446 155.173 159.917 155.173L77.1837 155.173C76.6674 155.173 76.2393 154.744 76.2393 154.228L76.2393 149.493 72.7889 149.506 72.7889 156.57C72.7889 157.477 73.5319 158.22 74.4385 158.22L162.083 158.22C162.99 158.22 163.733 157.477 163.733 156.57L163.733 97.637C163.745 96.7304 163.002 95.9874 162.096 95.9874Z" fill="#093371"/><path d="M72.7259 104.55 72.7259 149.519 72.7889 149.519 72.7889 104.55Z" fill="#FFFFFF"/><path d="M82.4348 134.798 69.7793 134.798 69.7793 144.204 58.8741 144.204" stroke="#093371" stroke-width="2.25086" stroke-linecap="round" stroke-linejoin="round" stroke-miterlimit="10" fill="none"/><path d="M58.8741 127.444 71.2526 127.444" stroke="#093371" stroke-width="2.25086" stroke-linecap="round" stroke-linejoin="round" stroke-miterlimit="10" fill="none"/><path d="M76.5415 127.557 87.2578 127.557" stroke="#093371" stroke-width="2.25086" stroke-linecap="round" stroke-linejoin="round" stroke-miterlimit="10" fill="none"/><path d="M56.1415 127.507C56.1415 130.615 53.6213 133.136 50.5126 133.136 47.4038 133.136 44.8837 130.615 44.8837 127.507 44.8837 124.398 47.4038 121.878 50.5126 121.878 53.6213 121.878 56.1415 124.398 56.1415 127.507Z" fill="#093371"/><path d="M54.4415 115.229 46.5837 115.229C46.1178 115.229 45.7526 114.851 45.7526 114.398L45.7526 106.54C45.7526 106.074 46.1304 105.709 46.5837 105.709L54.4415 105.709C54.9074 105.709 55.2726 106.087 55.2726 106.54L55.2726 114.385C55.2852 114.851 54.9074 115.229 54.4415 115.229Z" fill="#FF8F02"/><path d="M45.7022 148.75 55.323 148.75C55.8393 148.75 56.1793 148.196 55.9274 147.73L51.117 138.84C50.8526 138.361 50.16 138.361 49.9081 138.84L45.0978 147.73C44.8459 148.196 45.1859 148.75 45.7022 148.75Z" fill="#2196F3"/><path d="M82.4348 119.901 69.7793 119.901 69.7793 110.494 58.8741 110.494" stroke="#093371" stroke-width="2.25086" stroke-linecap="round" stroke-linejoin="round" stroke-miterlimit="10" fill="none"/></g></g></g><text fill="#393D4D" font-family="Rubik,Rubik_MSFontService,sans-serif" font-weight="500" font-size="19" transform="translate(62.7568 190)">Data <tspan font-size="19" x="46.8333" y="0">entry</tspan></text><rect x="34.5001" y="58.5001" width="163" height="163" stroke="#FFFFFF" stroke-width="1.13333" stroke-linejoin="round" stroke-miterlimit="10" fill="none"/><rect x="35.5001" y="64.5001" width="163" height="163" stroke="#FFFFFF" stroke-width="1.13333" stroke-linejoin="round" stroke-miterlimit="10" fill="none"/><rect x="37.5001" y="58.5001" width="163" height="163" stroke="#FFFFFF" stroke-width="1.13333" stroke-linejoin="round" stroke-miterlimit="10" fill="none"/></g></svg>